<svg xmlns="http://www.w3.org/2000/svg" version="1.1" xmlns:xlink="http://www.w3.org/1999/xlink" xmlns:svgjs="http://svgjs.dev/svgjs" width="2000" height="1247" viewBox="0 0 2000 1247"><g transform="matrix(1,0,0,1,-1.2121212121212466,0.504858299595071)"><svg viewBox="0 0 396 247" data-background-color="#ffffff" preserveAspectRatio="xMidYMid meet" height="1247" width="2000" xmlns="http://www.w3.org/2000/svg" xmlns:xlink="http://www.w3.org/1999/xlink"><g id="tight-bounds" transform="matrix(1,0,0,1,0.2400000000000091,-0.09999999999999432)"><svg viewBox="0 0 395.52 247.2" height="247.2" width="395.52"><g><svg></svg></g><g><svg viewBox="0 0 395.52 247.2" height="247.2" width="395.52"><g transform="matrix(1,0,0,1,75.54432,72.74092767029194)"><svg viewBox="0 0 244.43135999999998 101.71814465941613" height="101.71814465941613" width="244.43135999999998"><g><svg viewBox="0 0 244.43135999999998 101.71814465941613" height="101.71814465941613" width="244.43135999999998"><g><svg viewBox="0 0 244.43135999999998 101.71814465941613" height="101.71814465941613" width="244.43135999999998"><g><svg viewBox="0 0 244.43135999999998 101.71814465941613" height="101.71814465941613" width="244.43135999999998"><g id="textblocktransform"><svg viewBox="0 0 244.43135999999998 101.71814465941613" height="101.71814465941613" width="244.43135999999998" id="textblock"><g><svg viewBox="0 0 244.43135999999998 101.71814465941613" height="101.71814465941613" width="244.43135999999998"><g transform="matrix(1,0,0,1,0,0)"><svg width="244.43135999999998" viewBox="0.25 -35.5 87.33999633789062 36.349998474121094" height="101.71814465941613" data-palette-color="#ffffff"><path d="M13.1-35.5Q16.6-35.5 19.28-34.38 21.95-33.25 24.15-31.05L24.15-31.05 20.5-26.85Q17.25-29.65 13.85-29.65L13.85-29.65Q11.95-29.65 10.85-28.7 9.75-27.75 9.75-26.1L9.75-26.1Q9.75-25 10.25-24.25 10.75-23.5 12-22.8 13.25-22.1 15.7-21.2L15.7-21.2Q18.9-20 20.88-18.63 22.85-17.25 23.9-15.2 24.95-13.15 24.95-10.1L24.95-10.1Q24.95-6.9 23.43-4.42 21.9-1.95 19.03-0.55 16.15 0.85 12.3 0.85L12.3 0.85Q5.05 0.85 0.25-4.05L0.25-4.05 4.15-8.4Q6-6.8 7.88-5.95 9.75-5.1 11.85-5.1L11.85-5.1Q14.15-5.1 15.4-6.3 16.65-7.5 16.65-9.5L16.65-9.5Q16.65-11.4 15.5-12.55 14.35-13.7 11.15-14.85L11.15-14.85Q5.95-16.8 3.75-19.25 1.55-21.7 1.55-25.5L1.55-25.5Q1.55-28.45 3.05-30.73 4.55-33 7.18-34.25 9.8-35.5 13.1-35.5L13.1-35.5ZM53.65 0L45.4 0 43.85-7.55 35.05-7.55 33.5 0 25.4 0 34.75-34.65 44.35-34.65 53.65 0ZM39.45-28.8L36.25-13.3 42.65-13.3 39.45-28.8ZM85.3-34.65L87.59 0 79.95 0 79.5-13.7Q79.3-19.7 79.3-22.55L79.3-22.55Q79.3-26.05 79.4-27.7L79.4-27.7 74.84-3.65 67.34-3.65 62.55-27.7Q62.75-23.9 62.75-19.65L62.75-19.65Q62.75-17.75 62.65-13.55L62.65-13.55 62.2 0 54.6 0 56.9-34.65 66.9-34.65 71.25-11.05 75.25-34.65 85.3-34.65Z" opacity="1" transform="matrix(1,0,0,1,0,0)" fill="#ffffff" class="wordmark-text-0" data-fill-palette-color="primary" id="text-0"></path></svg></g></svg></g></svg></g></svg></g></svg></g></svg></g></svg></g><g><path d="M0 123.6c0-68.262 55.338-123.6 123.6-123.6 45.308 0 84.922 24.379 106.441 60.734l-5.367 0c-21.013-33.713-58.423-56.148-101.074-56.147-65.729 0-119.013 53.284-119.013 119.013 0 65.729 53.284 119.013 119.013 119.013 42.651 0 80.061-22.435 101.074-56.147l5.367 0c-21.519 36.356-61.133 60.734-106.441 60.734-68.262 0-123.6-55.338-123.6-123.6z" fill="#ffffff" stroke="transparent" data-fill-palette-color="tertiary"></path></g></svg></g><defs></defs></svg><rect width="395.52" height="247.2" fill="none" stroke="none" visibility="hidden"></rect></g></svg></g></svg>